<svg width="51" height="44" viewBox="0 0 51 44" fill="none" xmlns="http://www.w3.org/2000/svg">
<path d="M15.4773 43H35.5227C37.3679 43 38.8636 40.9853 38.8636 38.5C38.8636 31 32.1818 28 25.5 28C18.8182 28 12.1364 31 12.1364 38.5C12.1364 40.9853 13.6321 43 15.4773 43Z" fill="#7C7C8D"/>
<path d="M25.5 19C29.1903 19 32.1818 14.9706 32.1818 10C32.1818 5.02944 29.1903 1 25.5 1C21.8097 1 18.8182 5.02944 18.8182 10C18.8182 14.9706 21.8097 19 25.5 19Z" fill="#7C7C8D"/>
<path d="M41.0909 28C46.0113 28 50 34 50 38.5C50 40.9853 48.5042 43 46.6591 43H45.5455M36.6364 19C40.3266 19 43.3182 14.9706 43.3182 10C43.3182 5.02944 40.3266 1 36.6364 1M9.90909 28C4.98874 28 1 34 1 38.5C1 40.9853 2.49578 43 4.34091 43H5.45455M14.3636 19C10.6734 19 7.68182 14.9706 7.68182 10C7.68182 5.02944 10.6734 1 14.3636 1M35.5227 43H15.4773C13.6321 43 12.1364 40.9853 12.1364 38.5C12.1364 31 18.8182 28 25.5 28C32.1818 28 38.8636 31 38.8636 38.5C38.8636 40.9853 37.3679 43 35.5227 43ZM32.1818 10C32.1818 14.9706 29.1903 19 25.5 19C21.8097 19 18.8182 14.9706 18.8182 10C18.8182 5.02944 21.8097 1 25.5 1C29.1903 1 32.1818 5.02944 32.1818 10Z" stroke="#7C7C8D" stroke-width="2" stroke-linecap="round" stroke-linejoin="round"/>
</svg>
