<svg width="51" height="48" viewBox="0 0 51 48" fill="none" xmlns="http://www.w3.org/2000/svg">
<path d="M46.75 17.04V7.96C46.75 5.14 45.39 4 42.0113 4H33.4262C30.0475 4 28.6875 5.14 28.6875 7.96V17.02C28.6875 19.86 30.0475 20.98 33.4262 20.98H42.0113C45.39 21 46.75 19.86 46.75 17.04Z" fill="#7C7C8D" stroke="#7C7C8D" stroke-width="2" stroke-linecap="round" stroke-linejoin="round"/>
<path d="M46.75 39.54V31.46C46.75 28.28 45.39 27 42.0113 27H33.4262C30.0475 27 28.6875 28.28 28.6875 31.46V39.54C28.6875 42.72 30.0475 44 33.4262 44H42.0113C45.39 44 46.75 42.72 46.75 39.54Z" fill="#7C7C8D" stroke="#7C7C8D" stroke-width="2" stroke-linecap="round" stroke-linejoin="round"/>
<path d="M22.3125 17.04V7.96C22.3125 5.14 20.9525 4 17.5738 4H8.98875C5.61 4 4.25 5.14 4.25 7.96V17.02C4.25 19.86 5.61 20.98 8.98875 20.98H17.5738C20.9525 21 22.3125 19.86 22.3125 17.04Z" fill="#7C7C8D" stroke="#7C7C8D" stroke-width="2" stroke-linecap="round" stroke-linejoin="round"/>
<path d="M22.3125 39.54V31.46C22.3125 28.28 20.9525 27 17.5738 27H8.98875C5.61 27 4.25 28.28 4.25 31.46V39.54C4.25 42.72 5.61 44 8.98875 44H17.5738C20.9525 44 22.3125 42.72 22.3125 39.54Z" fill="#7C7C8D" stroke="#7C7C8D" stroke-width="2" stroke-linecap="round" stroke-linejoin="round"/>
</svg>
