<svg width="98" height="98" viewBox="0 0 98 98" fill="none" xmlns="http://www.w3.org/2000/svg">
<path d="M49 72.9192C49.9461 72.9192 50.7388 72.5996 51.3779 71.9604C52.0135 71.3212 52.3312 70.5286 52.3312 69.5825C52.3312 68.64 52.0117 67.8492 51.3725 67.21C50.7333 66.5708 49.9425 66.2494 49 66.2458C48.0575 66.2422 47.2667 66.5618 46.6275 67.2046C45.9883 67.8474 45.6688 68.6382 45.6688 69.5771C45.6688 70.516 45.9883 71.3086 46.6275 71.955C47.2667 72.6014 48.0575 72.9264 49 72.9192ZM46.2917 54.9954H51.7083V22.4954H46.2917V54.9954ZM49.0163 97.5C42.2779 97.5 35.9404 96.2217 30.0037 93.665C24.0707 91.1047 18.9086 87.6308 14.5175 83.2433C10.1264 78.8558 6.65069 73.6992 4.09042 67.7733C1.53014 61.8475 0.25 55.5118 0.25 48.7663C0.25 42.0207 1.53014 35.6832 4.09042 29.7537C6.64708 23.8207 10.1156 18.6586 14.4958 14.2675C18.8761 9.87639 24.0346 6.40069 29.9713 3.84042C35.9079 1.28014 42.2454 0 48.9837 0C55.7221 0 62.0596 1.28014 67.9962 3.84042C73.9293 6.39708 79.0914 9.86736 83.4825 14.2513C87.8736 18.6351 91.3493 23.7936 93.9096 29.7267C96.4699 35.6597 97.75 41.9954 97.75 48.7337C97.75 55.4721 96.4717 61.8096 93.915 67.7462C91.3583 73.6829 87.8844 78.845 83.4933 83.2325C79.1022 87.62 73.9456 91.0957 68.0233 93.6596C62.1011 96.2235 55.7654 97.5036 49.0163 97.5ZM49 92.0833C61.0972 92.0833 71.3437 87.8854 79.7396 79.4896C88.1354 71.0937 92.3333 60.8472 92.3333 48.75C92.3333 36.6528 88.1354 26.4062 79.7396 18.0104C71.3437 9.61458 61.0972 5.41667 49 5.41667C36.9028 5.41667 26.6562 9.61458 18.2604 18.0104C9.86458 26.4062 5.66667 36.6528 5.66667 48.75C5.66667 60.8472 9.86458 71.0937 18.2604 79.4896C26.6562 87.8854 36.9028 92.0833 49 92.0833Z" fill="#BE1E2A"/>
</svg>
